<svg xmlns="http://www.w3.org/2000/svg" viewBox="0 0 50 50" width="50px" height="50px">
  <path d="M 8 5 C 6.3550302 5 5 6.3550302 5 8 L 5 42 C 5 43.64497 6.3550302 45 8 45 L 42 45 C 43.64497 45 45 43.64497 45 42 L 45 8 C 45 6.3550302 43.64497 5 42 5 L 8 5 z M 8 7 L 42 7 C 42.56503 7 43 7.4349698 43 8 L 43 42 C 43 42.56503 42.56503 43 42 43 L 8 43 C 7.4349698 43 7 42.56503 7 42 L 7 8 C 7 7.4349698 7.4349698 7 8 7 z M 11 12 L 11 14 L 37 14 L 37 12 L 11 12 z M 11 18 L 11 20 L 28 20 L 28 18 L 11 18 z M 11 24 L 11 26 L 37 26 L 37 24 L 11 24 z M 11 30 L 11 32 L 28 32 L 28 30 L 11 30 z M 11 36 L 11 38 L 37 38 L 37 36 L 11 36 z" fill="#FF7F50" />
</svg>